<?xml version="1.0" standalone="no"?>
<!DOCTYPE svg PUBLIC "-//W3C//DTD SVG 20010904//EN"
 "http://www.w3.org/TR/2001/REC-SVG-20010904/DTD/svg10.dtd">
<svg version="1.0" xmlns="http://www.w3.org/2000/svg"
 width="1076.000000pt" height="806.000000pt" viewBox="0 0 1076.000000 806.000000"
 preserveAspectRatio="xMidYMid meet">
<metadata>
Created by potrace 1.16, written by Peter Selinger 2001-2019
</metadata>
<g transform="translate(0.000000,806.000000) scale(0.100000,-0.100000)"
fill="#000000" stroke="none">
<path d="M10750 6910 l0 -1150 -1774 0 -1774 0 -7 118 c-21 352 -145 734 -336
1038 -329 523 -827 850 -1489 976 -96 18 -151 21 -335 21 -240 0 -335 -12
-557 -72 -536 -145 -982 -467 -1256 -907 -200 -321 -326 -706 -347 -1061 l-7
-113 -1437 -3 -1436 -2 1436 -3 1437 -2 7 -112 c30 -509 264 -1042 614 -1401
352 -362 907 -611 1429 -642 61 -4 112 -9 112 -11 0 -2 -403 -810 -895 -1794
l-895 -1790 1790 0 c984 0 1790 2 1790 4 0 2 -401 808 -891 1792 l-890 1789
103 7 c635 47 1237 356 1590 818 80 104 176 256 230 364 125 248 217 586 233
859 l7 117 1774 0 1774 0 3 -1157 c1 -637 3 -117 5 1155 1 1271 0 2312 -3
2312 -3 0 -5 -517 -5 -1150z m-5376 970 c556 -102 1032 -375 1335 -765 237
-304 376 -620 453 -1025 18 -96 21 -151 21 -335 0 -184 -3 -239 -21 -335 -77
-405 -216 -721 -453 -1025 -301 -388 -777 -660 -1339 -767 -166 -31 -504 -31
-670 0 -562 107 -1038 379 -1339 767 -230 296 -378 630 -453 1025 -31 166 -31
504 0 670 75 395 223 729 453 1025 214 276 533 506 889 641 191 73 417 128
590 145 136 12 411 2 534 -21z"/>
</g>
</svg>
