<?xml version="1.0" standalone="no"?>
<!DOCTYPE svg PUBLIC "-//W3C//DTD SVG 20010904//EN"
 "http://www.w3.org/TR/2001/REC-SVG-20010904/DTD/svg10.dtd">
<svg version="1.0" xmlns="http://www.w3.org/2000/svg"
 width="1059.000000pt" height="1059.000000pt" viewBox="0 0 1059.000000 1059.000000"
 preserveAspectRatio="xMidYMid meet">
<metadata>
Created by potrace 1.16, written by Peter Selinger 2001-2019
</metadata>
<g transform="translate(0.000000,1059.000000) scale(0.100000,-0.100000)"
fill="#000000" stroke="none">
<path d="M5130 7494 c-255 -19 -595 -116 -850 -244 -288 -144 -610 -437 -832
-755 -110 -158 -219 -410 -282 -650 -58 -219 -70 -315 -70 -550 0 -235 12
-331 70 -550 66 -252 173 -494 297 -670 218 -311 530 -592 817 -735 206 -103
463 -186 700 -226 147 -25 483 -25 630 0 322 54 673 187 885 334 319 222 611
544 755 832 103 206 186 463 226 700 25 147 25 483 0 630 -40 237 -123 494
-226 700 -143 287 -424 599 -735 817 -226 159 -556 288 -879 344 -109 19 -388
31 -506 23z m506 -33 c493 -85 892 -293 1230 -643 283 -292 445 -580 548 -973
58 -219 70 -315 70 -550 0 -235 -12 -331 -70 -550 -41 -157 -103 -324 -174
-465 -144 -288 -429 -602 -745 -822 -212 -147 -563 -280 -885 -334 -147 -25
-483 -25 -630 0 -414 70 -783 232 -1065 469 -383 322 -618 688 -739 1152 -58
219 -70 315 -70 550 0 235 12 331 70 550 41 157 103 324 174 465 144 288 429
602 745 822 251 174 702 328 1035 352 118 8 397 -4 506 -23z"/>
<path d="M5055 7040 c-307 -49 -466 -108 -715 -268 -416 -267 -688 -682 -786
-1197 -24 -126 -24 -436 0 -560 99 -517 371 -931 786 -1197 254 -163 409 -220
720 -268 159 -25 311 -25 470 0 309 47 468 107 720 268 366 235 613 570 738
1002 54 183 65 266 65 475 1 209 -11 289 -65 475 -144 496 -429 842 -908 1103
-279 151 -697 220 -1025 167z m475 -10 c311 -48 466 -105 720 -268 411 -263
677 -670 776 -1187 24 -124 24 -434 0 -560 -98 -515 -364 -922 -776 -1187
-252 -161 -411 -221 -720 -268 -212 -33 -424 -21 -680 39 -170 40 -317 105
-510 229 -410 262 -677 672 -776 1187 -24 124 -24 434 0 560 82 432 300 816
601 1059 225 182 474 310 700 361 256 57 457 68 665 35z"/>
<path d="M5175 6614 c-234 -24 -401 -84 -610 -220 -116 -74 -295 -253 -369
-369 -164 -254 -219 -437 -219 -730 0 -107 5 -190 17 -253 70 -383 354 -750
726 -937 107 -54 218 -92 322 -111 126 -23 380 -23 506 0 383 70 750 355 938
728 95 188 127 334 127 573 0 292 -55 478 -219 732 -71 111 -256 296 -367 367
-166 107 -325 174 -474 201 -90 15 -306 26 -378 19z m378 -29 c234 -41 476
-174 667 -365 192 -192 322 -430 366 -672 23 -126 23 -380 0 -506 -70 -381
-348 -742 -718 -928 -188 -95 -334 -127 -573 -127 -107 0 -190 5 -253 17 -381
70 -742 348 -927 716 -96 190 -128 336 -128 575 0 183 17 301 63 424 122 333
359 599 672 757 142 71 278 110 453 128 72 7 288 -4 378 -19z"/>
<path d="M5190 6174 c-96 -12 -184 -41 -294 -98 -107 -55 -130 -71 -220 -162
-91 -90 -107 -113 -162 -220 -79 -153 -98 -229 -98 -399 -1 -168 18 -244 98
-400 55 -108 71 -130 161 -220 90 -90 112 -106 220 -161 155 -80 231 -98 400
-98 170 0 245 18 399 98 107 55 130 71 220 162 91 90 107 113 162 220 79 153
98 229 98 399 1 168 -18 244 -98 400 -55 108 -71 130 -161 220 -88 88 -114
107 -214 159 -63 32 -146 67 -185 77 -70 18 -257 31 -326 23z m326 -33 c39
-10 122 -45 185 -77 99 -51 126 -71 209 -154 85 -85 102 -108 156 -215 80
-156 99 -232 98 -400 0 -170 -19 -246 -98 -399 -54 -106 -72 -130 -157 -215
-85 -85 -109 -103 -215 -157 -154 -80 -229 -98 -399 -98 -169 0 -245 18 -400
98 -106 54 -130 72 -215 156 -84 85 -102 109 -156 215 -80 156 -99 232 -98
400 0 170 19 246 98 399 54 106 72 130 157 215 85 85 109 103 215 157 110 57
198 86 294 98 69 8 256 -5 326 -23z"/>
<path d="M5201 5730 c-24 -5 -64 -19 -90 -32 -60 -29 -191 -160 -220 -220 -50
-104 -50 -262 0 -366 13 -26 59 -83 104 -128 62 -62 93 -86 135 -101 112 -42
251 -38 349 9 25 12 82 58 127 103 105 105 127 156 127 300 1 145 -21 194
-132 306 -69 69 -98 90 -145 108 -67 25 -188 35 -255 21z m255 -31 c46 -18 76
-39 140 -103 106 -107 128 -158 127 -301 0 -142 -22 -195 -122 -295 -42 -42
-97 -86 -122 -98 -98 -47 -237 -51 -349 -9 -66 24 -194 147 -229 219 -50 104
-50 262 0 366 30 60 150 181 210 210 26 13 66 27 90 32 67 14 188 4 255 -21z"/>
</g>
</svg>
