<?xml version="1.0" standalone="no"?>
<!DOCTYPE svg PUBLIC "-//W3C//DTD SVG 20010904//EN"
 "http://www.w3.org/TR/2001/REC-SVG-20010904/DTD/svg10.dtd">
<svg version="1.0" xmlns="http://www.w3.org/2000/svg"
 width="1059.000000pt" height="1059.000000pt" viewBox="0 0 1059.000000 1059.000000"
 preserveAspectRatio="xMidYMid meet">
<metadata>
Created by potrace 1.16, written by Peter Selinger 2001-2019
</metadata>
<g transform="translate(0.000000,1059.000000) scale(0.100000,-0.100000)"
fill="#000000" stroke="none">
<path d="M4965 10579 c-590 -52 -854 -104 -1365 -271 -676 -221 -1341 -615
-1884 -1115 l-168 -156 -627 624 -626 624 625 -627 624 -627 -29 -33 c-17 -18
-66 -71 -110 -118 -257 -274 -559 -691 -743 -1027 -346 -629 -540 -1253 -633
-2028 -31 -262 -31 -798 0 -1060 59 -498 178 -997 328 -1380 245 -626 614
-1209 1081 -1709 l112 -121 -627 -630 -628 -630 630 627 630 626 160 -149
c522 -487 1205 -893 1870 -1112 517 -170 774 -222 1348 -272 322 -27 614 -18
1072 36 523 61 1132 247 1645 504 459 230 853 501 1218 837 l164 151 626 -624
627 -624 -625 627 -624 627 30 33 c16 18 68 74 114 123 431 459 815 1072 1053
1680 150 383 269 882 328 1380 18 152 22 234 22 530 0 296 -4 378 -22 530 -59
498 -178 997 -328 1380 -245 625 -614 1209 -1081 1709 l-112 121 622 625 623
625 -625 -622 -625 -621 -160 149 c-522 487 -1205 893 -1870 1112 -517 170
-774 222 -1348 272 -190 16 -527 18 -692 4z m692 -14 c574 -50 831 -102 1348
-272 317 -104 648 -256 980 -450 897 -524 1626 -1327 2093 -2303 240 -503 395
-1065 473 -1715 31 -262 31 -798 0 -1060 -59 -498 -178 -997 -328 -1380 -246
-629 -628 -1231 -1093 -1723 l-102 -107 -1088 1095 -1089 1095 48 50 c69 72
179 208 243 300 147 212 280 563 334 885 25 147 25 483 0 630 -56 336 -187
676 -349 905 -72 103 -191 247 -246 300 l-32 29 1093 1096 1093 1095 -1095
-1093 -1096 -1093 -29 32 c-53 55 -197 174 -300 246 -229 162 -569 293 -905
349 -147 25 -483 25 -630 0 -322 -54 -673 -187 -885 -334 -92 -64 -228 -174
-300 -243 l-50 -48 -1095 1088 -1095 1088 20 23 c11 12 85 82 165 155 526 482
1197 876 1860 1093 511 167 775 219 1365 271 165 14 502 12 692 -4z m-3011
-2632 l1095 -1087 -49 -50 c-69 -72 -179 -207 -244 -301 -147 -212 -280 -563
-334 -885 -25 -147 -25 -483 0 -630 56 -336 187 -676 349 -905 72 -103 191
-247 246 -300 l32 -29 -1093 -1096 -1093 -1095 1095 1093 1096 1093 29 -32
c53 -55 197 -174 300 -246 229 -162 569 -293 905 -349 147 -25 483 -25 630 0
322 54 673 187 885 334 94 65 229 175 301 244 l50 49 1088 -1096 c913 -919
1086 -1098 1076 -1110 -37 -45 -325 -298 -445 -392 -475 -371 -1027 -671
-1560 -846 -517 -170 -774 -222 -1348 -272 -322 -27 -614 -18 -1072 36 -523
61 -1132 247 -1645 504 -874 438 -1552 1049 -2101 1895 -240 368 -467 855
-585 1250 -94 317 -173 704 -215 1055 -31 262 -31 798 0 1060 121 1013 422
1797 995 2590 56 77 138 185 184 240 80 96 323 365 330 365 2 0 496 -489 1098
-1087z m2990 -472 c493 -85 892 -293 1230 -643 283 -292 445 -580 548 -973 58
-219 70 -315 70 -550 0 -235 -12 -331 -70 -550 -41 -157 -103 -324 -174 -465
-144 -288 -429 -602 -745 -822 -212 -147 -563 -280 -885 -334 -147 -25 -483
-25 -630 0 -414 70 -783 232 -1065 469 -383 322 -618 688 -739 1152 -58 219
-70 315 -70 550 0 235 12 331 70 550 41 157 103 324 174 465 144 288 429 602
745 822 251 174 702 328 1035 352 118 8 397 -4 506 -23z"/>
<path d="M5055 7040 c-161 -25 -258 -49 -365 -87 -165 -60 -381 -188 -549
-328 l-93 -77 -152 148 -151 149 149 -152 150 -152 -42 -48 c-236 -268 -381
-567 -448 -918 -24 -126 -24 -436 0 -560 67 -353 212 -650 448 -918 l42 -48
-150 -152 -149 -152 151 149 152 148 93 -78 c161 -133 382 -266 539 -324 168
-62 436 -110 615 -110 179 0 444 48 615 110 157 58 376 190 539 325 l93 77
152 -148 151 -149 -149 152 -149 151 30 39 c17 21 40 47 52 57 12 11 50 58 85
105 148 200 270 490 322 766 24 126 24 436 0 560 -53 277 -174 566 -322 766
-35 47 -73 94 -85 105 -12 10 -35 36 -52 57 l-30 39 149 151 149 152 -151
-149 -152 -148 -93 78 c-103 85 -237 175 -369 247 -279 151 -697 220 -1025
167z m475 -10 c315 -48 470 -107 730 -275 94 -61 270 -200 270 -213 0 -4 -68
-75 -152 -159 l-152 -152 -70 63 c-165 147 -401 264 -608 302 -126 23 -380 23
-506 0 -207 -38 -441 -154 -608 -302 l-70 -63 -153 153 c-85 85 -151 158 -148
163 13 21 196 163 277 215 193 123 353 195 525 233 256 57 457 68 665 35z m23
-445 c198 -35 437 -154 600 -298 l68 -61 -152 -152 -152 -152 -63 52 c-77 66
-255 158 -354 182 -103 25 -306 25 -410 0 -97 -24 -285 -121 -359 -186 l-56
-49 -153 152 -153 152 58 53 c109 100 285 204 444 262 72 27 196 53 304 64 72
7 288 -4 378 -19z m-1191 -362 l308 -308 -50 -56 c-65 -74 -163 -263 -186
-359 -25 -104 -25 -308 0 -410 25 -99 116 -277 182 -354 l52 -63 -152 -152
-152 -152 -61 68 c-101 115 -194 273 -253 434 -46 123 -63 241 -63 424 0 182
17 301 63 424 57 154 152 318 259 443 l53 63 -57 -60 c-100 -107 -205 -283
-265 -446 -46 -123 -63 -241 -63 -424 0 -183 17 -301 63 -424 60 -163 152
-320 256 -437 l63 -70 -155 -155 -154 -154 -40 45 c-229 256 -379 564 -446
915 -24 124 -24 434 0 560 52 275 176 570 320 760 63 84 157 194 166 195 3 0
143 -138 312 -307z m2244 237 c205 -227 355 -543 420 -885 24 -124 24 -434 0
-560 -65 -345 -217 -662 -429 -895 l-58 -64 -154 154 -154 154 63 70 c148 167
264 401 302 608 23 126 23 380 0 506 -38 210 -166 464 -311 617 l-57 60 51
-60 c105 -122 204 -290 261 -446 46 -123 63 -241 63 -424 0 -183 -17 -301 -63
-424 -58 -159 -162 -335 -262 -444 l-53 -58 -152 153 -152 153 49 56 c65 74
163 263 186 359 25 104 25 308 0 410 -25 99 -116 278 -182 354 l-52 61 306
308 c169 169 310 306 313 305 4 -2 33 -32 65 -68z m-1090 -319 c39 -10 122
-45 185 -77 99 -51 126 -71 209 -154 85 -85 102 -108 156 -215 35 -68 70 -153
80 -195 25 -102 25 -306 0 -410 -23 -95 -123 -288 -184 -358 l-47 -52 -154
154 -153 154 45 55 c60 73 81 139 81 252 1 113 -20 177 -81 252 l-45 55 153
157 154 156 -156 -154 -157 -153 -55 45 c-72 59 -139 81 -247 82 -111 0 -170
-18 -248 -78 l-65 -49 -156 154 -156 153 153 -156 154 -156 -49 -65 c-59 -77
-77 -135 -78 -243 0 -106 19 -166 78 -243 l49 -65 -154 -154 -153 -154 -47 53
c-61 69 -160 262 -184 358 -25 102 -25 306 0 410 11 44 44 125 80 194 54 106
72 130 157 215 85 85 109 103 215 157 110 57 198 86 294 98 69 8 256 -5 326
-23z m-65 -440 c30 -12 74 -39 99 -60 l45 -40 -150 -150 -150 -151 -150 151
-150 150 40 35 c49 41 108 72 166 84 64 13 188 4 250 -19z m-308 -259 l147
-147 -151 -150 -150 -150 -35 40 c-45 53 -72 109 -85 180 -12 67 -5 166 17
228 14 41 88 147 102 147 4 0 74 -66 155 -148z m506 98 c57 -72 76 -135 75
-250 -2 -114 -24 -183 -83 -250 l-40 -45 -153 150 -153 150 150 -153 150 -153
-40 -35 c-55 -47 -112 -73 -186 -85 -124 -20 -250 11 -329 80 l-45 40 300 300
c165 166 303 301 307 301 4 0 25 -22 47 -50z m-605 -604 c71 -57 139 -80 246
-80 112 -1 170 17 249 77 l64 49 464 -464 c254 -254 463 -466 463 -470 0 -13
-176 -151 -270 -213 -258 -167 -416 -227 -730 -275 -212 -33 -424 -21 -680 39
-174 41 -320 107 -520 236 -94 61 -270 200 -270 213 0 6 921 932 928 932 1 0
27 -20 56 -44z"/>
<path d="M4730 4622 c70 -65 259 -163 360 -188 103 -25 307 -25 410 0 97 24
290 124 355 184 28 26 41 40 30 32 -11 -8 -33 -27 -50 -41 -49 -45 -253 -145
-335 -165 -103 -25 -307 -25 -410 0 -94 23 -272 113 -353 178 l-62 50 55 -50z"/>
<path d="M4425 4305 c106 -100 281 -205 446 -265 123 -46 241 -63 424 -63 183
0 301 17 424 63 163 60 339 165 446 265 l60 57 -63 -53 c-125 -107 -289 -202
-443 -259 -123 -46 -242 -63 -424 -63 -183 0 -301 17 -424 63 -156 57 -324
156 -446 261 l-60 51 60 -57z"/>
</g>
</svg>
