<?xml version="1.0" standalone="no"?>
<!DOCTYPE svg PUBLIC "-//W3C//DTD SVG 20010904//EN"
 "http://www.w3.org/TR/2001/REC-SVG-20010904/DTD/svg10.dtd">
<svg version="1.0" xmlns="http://www.w3.org/2000/svg"
 width="1059.000000pt" height="1059.000000pt" viewBox="0 0 1059.000000 1059.000000"
 preserveAspectRatio="xMidYMid meet">
<metadata>
Created by potrace 1.16, written by Peter Selinger 2001-2019
</metadata>
<g transform="translate(0.000000,1059.000000) scale(0.100000,-0.100000)"
fill="#000000" stroke="none">
<path d="M5030 10583 c-19 -2 -111 -10 -205 -19 -309 -27 -578 -69 -780 -121
-33 -8 -64 -16 -70 -18 -5 -1 -17 -5 -25 -8 -8 -3 -69 -22 -135 -41 -163 -48
-494 -161 -520 -177 -5 -4 -49 -23 -98 -43 -331 -136 -826 -427 -1119 -658
-48 -37 -92 -68 -98 -68 -5 0 -10 -4 -10 -9 0 -5 -18 -22 -40 -38 -77 -57
-331 -297 -467 -441 -76 -81 -141 -146 -145 -144 -5 1 -8 -4 -8 -11 0 -6 -37
-55 -81 -107 -151 -178 -441 -594 -529 -758 -18 -34 -37 -62 -41 -62 -5 0 -9
-4 -9 -10 0 -5 -51 -115 -114 -242 -228 -469 -358 -876 -455 -1428 -61 -350
-74 -499 -74 -885 0 -386 13 -535 74 -885 97 -552 227 -959 455 -1428 63 -127
114 -239 114 -248 0 -8 4 -13 9 -10 5 3 23 -22 42 -57 87 -163 377 -579 528
-757 44 -52 81 -104 81 -115 0 -12 3 -16 8 -9 4 7 56 -42 132 -124 121 -130
393 -389 478 -454 23 -18 42 -38 42 -46 0 -7 4 -11 10 -7 5 3 49 -25 97 -63
121 -95 359 -257 471 -321 50 -30 92 -57 92 -61 0 -3 6 -7 13 -7 6 0 37 -15
67 -33 84 -50 379 -196 477 -236 49 -20 93 -41 98 -47 6 -7 19 -13 30 -14 11
-1 85 -25 165 -53 80 -28 213 -71 295 -96 83 -25 157 -48 165 -51 8 -3 20 -7
25 -8 6 -2 29 -8 52 -14 91 -25 387 -81 487 -92 58 -6 106 -15 106 -18 0 -3
30 -7 68 -7 37 -1 147 -9 245 -18 317 -29 612 -19 1072 35 523 61 1132 247
1645 504 196 98 467 255 601 348 53 37 100 67 105 67 4 0 18 -10 31 -21 l22
-22 626 618 626 619 -29 28 -29 29 127 192 c460 698 722 1439 831 2352 18 152
22 234 22 530 0 296 -4 378 -22 530 -109 911 -369 1649 -829 2349 l-124 188
26 27 25 27 -624 624 -624 624 -24 -22 c-13 -12 -27 -22 -31 -22 -5 0 -52 30
-105 67 -334 231 -846 485 -1246 616 -517 170 -774 222 -1348 272 -158 13
-528 18 -627 8z m260 -2021 l0 -2017 -330 -330 -330 -330 0 2326 0 2326 133
12 c72 7 170 16 217 20 47 5 136 9 198 10 l112 1 0 -2018z m367 2003 c574 -50
831 -102 1348 -272 317 -104 649 -256 980 -450 136 -79 365 -228 365 -236 0
-1 -686 -688 -1525 -1527 l-1525 -1525 0 2013 0 2012 89 0 c50 0 170 -7 268
-15z m-1037 -2362 l0 -2328 -290 -290 -290 -290 290 -290 290 -290 0 -2327 0
-2328 -22 0 c-80 1 -533 83 -602 110 l-26 10 0 5115 0 5115 26 10 c70 27 501
106 592 109 l32 1 0 -2327z m-660 -2907 l0 -5114 -72 20 c-105 29 -431 136
-510 166 l-68 26 0 4901 0 4901 33 13 c83 33 575 194 615 201 1 0 2 -2301 2
-5114z m-660 -1 l0 -4894 -96 40 c-110 46 -387 183 -487 241 l-67 39 0 4574 0
4574 68 39 c122 72 531 270 580 281 1 1 2 -2202 2 -4894z m-662 -2279 l-3
-2286 -100 58 c-115 67 -328 213 -462 316 l-92 71 0 4120 0 4120 92 71 c136
104 348 250 462 316 l100 58 3 -2279 c1 -1254 1 -3308 0 -4565z m-670 222 l-3
-2050 -40 32 c-97 77 -329 298 -461 439 l-144 153 0 3483 0 3483 144 153 c137
146 383 379 463 440 l38 28 3 -2056 c1 -1130 1 -2977 0 -4105z m-660 329 l-3
-1735 -81 96 c-154 184 -421 569 -522 754 l-42 77 0 2536 0 2536 42 77 c101
185 368 570 522 754 l81 96 3 -1728 c1 -951 1 -2509 0 -3463z m8412 4611 c263
-400 492 -884 616 -1298 94 -317 173 -704 215 -1055 31 -262 31 -798 0 -1060
-109 -912 -369 -1649 -829 -2349 l-124 -189 -1535 1534 -1534 1534 1533 1527
c843 840 1536 1527 1539 1528 3 0 57 -78 119 -172z m-9072 -4141 l-3 -1252
-106 215 c-220 447 -352 863 -448 1410 -61 350 -74 499 -74 885 0 386 13 535
74 885 96 547 228 963 448 1410 l106 215 3 -1258 c1 -692 1 -1822 0 -2510z
m4642 -2009 l0 -2018 -92 0 c-82 0 -173 7 -490 36 l-78 7 0 2326 0 2326 330
-330 330 -330 0 -2017z m1539 478 l1523 -1523 -98 -68 c-230 -159 -628 -373
-924 -497 -278 -117 -698 -247 -977 -302 -255 -51 -756 -106 -964 -106 l-89 0
0 2010 c0 1106 1 2010 3 2010 1 0 688 -686 1526 -1524z"/>
</g>
</svg>
