<?xml version="1.0" standalone="no"?>
<!DOCTYPE svg PUBLIC "-//W3C//DTD SVG 20010904//EN"
 "http://www.w3.org/TR/2001/REC-SVG-20010904/DTD/svg10.dtd">
<svg version="1.0" xmlns="http://www.w3.org/2000/svg"
 width="1059.000000pt" height="1059.000000pt" viewBox="0 0 1059.000000 1059.000000"
 preserveAspectRatio="xMidYMid meet">
<metadata>
Created by potrace 1.16, written by Peter Selinger 2001-2019
</metadata>
<g transform="translate(0.000000,1059.000000) scale(0.100000,-0.100000)"
fill="#000000" stroke="none">
<path d="M4965 10579 c-590 -52 -854 -104 -1365 -271 -1001 -327 -1932 -1009
-2564 -1878 -295 -405 -510 -792 -679 -1225 -150 -383 -269 -882 -328 -1380
-31 -262 -31 -798 0 -1060 42 -351 121 -738 215 -1055 118 -395 345 -882 585
-1250 551 -848 1236 -1467 2111 -1905 513 -257 1122 -443 1645 -504 573 -67
847 -67 1420 0 523 61 1132 247 1645 504 196 98 467 255 601 348 53 37 100 67
105 67 4 0 18 -10 31 -21 l22 -22 626 618 626 619 -29 28 -29 29 127 192 c460
698 722 1439 831 2352 18 152 22 234 22 530 0 296 -4 378 -22 530 -109 911
-369 1649 -829 2349 l-124 188 26 27 25 27 -624 624 -624 624 -24 -22 c-13
-12 -27 -22 -31 -22 -5 0 -52 30 -105 67 -227 157 -626 372 -921 495 -278 117
-698 247 -977 302 -426 85 -1027 126 -1388 95z m692 -14 c574 -50 831 -102
1348 -272 401 -132 912 -385 1249 -618 l98 -68 -2156 -2156 -2156 -2156 2156
-2156 2156 -2156 -98 -68 c-137 -95 -407 -251 -604 -350 -513 -257 -1122 -443
-1645 -504 -573 -67 -847 -67 -1420 0 -523 61 -1132 247 -1645 504 -874 438
-1552 1049 -2101 1895 -240 368 -467 855 -585 1250 -94 317 -173 704 -215
1055 -31 262 -31 798 0 1060 59 498 178 997 328 1380 295 753 778 1456 1378
2004 523 479 1195 873 1855 1089 511 167 775 219 1365 271 165 14 502 12 692
-4z m4063 -2387 c263 -400 492 -884 616 -1298 94 -317 173 -704 215 -1055 31
-262 31 -798 0 -1060 -109 -912 -369 -1649 -829 -2349 l-124 -189 -1535 1534
-1534 1534 1533 1527 c843 840 1536 1527 1539 1528 3 0 57 -78 119 -172z"/>
</g>
</svg>
