<?xml version="1.0" standalone="no"?>
<!DOCTYPE svg PUBLIC "-//W3C//DTD SVG 20010904//EN"
 "http://www.w3.org/TR/2001/REC-SVG-20010904/DTD/svg10.dtd">
<svg version="1.0" xmlns="http://www.w3.org/2000/svg"
 width="1059.000000pt" height="1059.000000pt" viewBox="0 0 1059.000000 1059.000000"
 preserveAspectRatio="xMidYMid meet">
<metadata>
Created by potrace 1.16, written by Peter Selinger 2001-2019
</metadata>
<g transform="translate(0.000000,1059.000000) scale(0.100000,-0.100000)"
fill="#000000" stroke="none">
<path d="M4965 10579 c-590 -52 -854 -104 -1365 -271 -416 -136 -877 -363
-1252 -616 l-128 -86 -30 29 -31 29 -624 -624 -625 -625 31 -31 c17 -18 30
-36 28 -41 -2 -4 -56 -87 -119 -183 -256 -388 -483 -868 -606 -1280 -94 -317
-173 -704 -215 -1055 -31 -262 -31 -798 0 -1060 42 -351 121 -738 215 -1055
118 -395 345 -882 585 -1250 551 -848 1236 -1467 2111 -1905 513 -257 1122
-443 1645 -504 573 -67 847 -67 1420 0 523 61 1132 247 1645 504 196 98 467
255 601 348 53 37 100 67 105 67 4 0 18 -10 31 -21 l22 -22 626 618 626 619
-29 28 -29 29 127 192 c460 698 722 1439 831 2352 18 152 22 234 22 530 0 296
-4 378 -22 530 -122 1020 -426 1807 -1007 2605 -415 571 -966 1070 -1569 1423
-426 249 -770 394 -1302 551 -473 139 -1235 217 -1718 175z m692 -14 c574 -50
831 -102 1348 -272 317 -104 648 -256 980 -450 897 -524 1626 -1327 2093
-2303 240 -503 395 -1065 473 -1715 31 -262 31 -798 0 -1060 -109 -912 -369
-1649 -829 -2349 l-124 -189 -3684 3684 c-2026 2026 -3684 3686 -3684 3689 1
10 249 171 395 255 412 240 775 392 1300 544 266 77 592 131 1040 170 165 14
502 12 692 -4z m2666 -9553 l28 -30 -98 -68 c-136 -94 -406 -250 -603 -349
-513 -257 -1122 -443 -1645 -504 -573 -67 -847 -67 -1420 0 -523 61 -1132 247
-1645 504 -874 438 -1552 1049 -2101 1895 -240 368 -467 855 -585 1250 -94
317 -173 704 -215 1055 -31 262 -31 798 0 1060 93 775 287 1399 633 2028 67
123 261 430 295 469 15 16 289 -255 3672 -3631 2011 -2007 3669 -3662 3684
-3679z"/>
</g>
</svg>
