<?xml version="1.0" standalone="no"?>
<!DOCTYPE svg PUBLIC "-//W3C//DTD SVG 20010904//EN"
 "http://www.w3.org/TR/2001/REC-SVG-20010904/DTD/svg10.dtd">
<svg version="1.0" xmlns="http://www.w3.org/2000/svg"
 width="1059.000000pt" height="1059.000000pt" viewBox="0 0 1059.000000 1059.000000"
 preserveAspectRatio="xMidYMid meet">
<metadata>
Created by potrace 1.16, written by Peter Selinger 2001-2019
</metadata>
<g transform="translate(0.000000,1059.000000) scale(0.100000,-0.100000)"
fill="#000000" stroke="none">
<path d="M4965 10579 c-468 -41 -775 -93 -1075 -180 -168 -50 -507 -160 -526
-171 -5 -3 -65 -29 -134 -58 -69 -28 -178 -78 -242 -111 -64 -32 -123 -59
-131 -59 -9 0 -17 -3 -19 -8 -3 -8 -183 -112 -193 -112 -3 0 -11 -5 -18 -11
-7 -6 -55 -36 -109 -67 -53 -32 -142 -88 -197 -126 l-101 -70 -30 29 -31 29
-624 -624 -625 -625 31 -31 c17 -18 30 -36 28 -41 -2 -4 -56 -87 -119 -183
-256 -388 -483 -868 -606 -1280 -94 -317 -173 -704 -215 -1055 -31 -262 -31
-798 0 -1060 42 -351 121 -738 215 -1055 124 -415 355 -903 615 -1295 l119
-180 -35 -36 -34 -36 626 -618 626 -618 28 27 c25 24 32 26 50 17 12 -7 21
-16 21 -21 0 -6 6 -10 13 -10 19 0 168 -106 160 -113 -3 -4 2 -7 12 -7 25 0
196 -100 189 -111 -3 -5 3 -9 13 -9 27 0 217 -107 201 -113 -7 -3 0 -6 15 -6
16 -1 77 -25 135 -55 59 -30 162 -77 230 -106 68 -28 131 -55 140 -60 9 -5 90
-33 179 -62 89 -28 159 -56 157 -60 -3 -4 9 -8 26 -8 17 0 99 -20 183 -45 84
-25 169 -48 190 -52 20 -3 40 -10 43 -14 3 -5 20 -9 38 -9 19 0 76 -9 127 -19
215 -44 718 -91 981 -91 262 0 725 42 998 91 140 25 145 27 350 85 91 26 181
49 200 52 19 2 37 8 40 12 3 4 70 29 150 55 169 55 409 154 562 231 59 30 117
54 130 54 12 0 18 3 15 6 -7 8 180 114 200 114 7 0 13 4 13 9 0 9 172 111 188
111 6 0 12 4 14 9 4 11 195 141 206 141 5 0 17 -9 27 -20 10 -11 22 -19 26
-18 4 2 287 279 629 617 l621 614 -29 29 -29 29 127 192 c460 698 722 1439
831 2352 18 152 22 234 22 530 0 296 -4 378 -22 530 -109 911 -369 1649 -829
2349 l-124 188 26 27 25 27 -624 624 -624 624 -24 -22 c-13 -12 -27 -22 -31
-22 -5 0 -52 30 -105 67 -229 159 -623 371 -921 495 -278 117 -698 247 -977
302 -426 85 -1027 126 -1388 95z m690 -14 c253 -22 519 -54 615 -75 84 -18 73
-18 -975 -18 -1050 0 -1059 0 -975 18 80 17 426 59 645 79 162 14 507 12 690
-4z m990 -158 c88 -27 162 -51 164 -53 2 -2 -679 -4 -1514 -4 -835 0 -1516 2
-1514 4 5 5 268 82 324 95 24 5 518 9 1210 8 l1170 -2 160 -48z m365 -116
l145 -49 -1860 0 -1860 0 140 48 140 48 1575 1 1576 1 144 -49z m309 -113
l125 -53 -1071 -3 c-589 -1 -1556 -1 -2149 0 l-1078 3 119 51 120 52 1905 1
1904 1 125 -52z m271 -123 l105 -54 -2400 0 -2400 0 105 54 105 54 2190 0
2190 0 105 -54z m230 -118 l95 -52 -1313 -3 c-723 -1 -1902 -1 -2620 0 l-1307
3 95 52 95 53 2430 0 2430 0 95 -53z m212 -122 l93 -55 -2830 0 -2830 0 90 54
90 54 2647 1 2647 1 93 -55z m193 -120 l79 -55 -3009 0 -3009 0 79 55 79 55
2851 0 2851 0 79 -55z m113 -77 c9 -9 4 -20 -25 -50 l-37 -38 -2991 0 -2991 0
-34 35 c-68 70 -328 64 3035 65 2350 0 3034 -3 3043 -12z m-128 -153 l-54 -55
-2871 0 -2871 0 -54 55 -54 55 2979 0 2979 0 -54 -55z m-120 -120 l-54 -55
-2751 0 -2751 0 -54 55 -54 55 2859 0 2859 0 -54 -55z m-120 -120 l-54 -55
-2631 0 -2631 0 -54 55 -54 55 2739 0 2739 0 -54 -55z m-120 -120 l-54 -55
-2511 0 -2511 0 -54 55 -54 55 2619 0 2619 0 -54 -55z m-115 -115 l-49 -50
-2401 0 -2401 0 -49 50 -49 50 2499 0 2499 0 -49 -50z m-115 -115 l-54 -55
-2281 0 -2281 0 -54 55 -54 55 2389 0 2389 0 -54 -55z m-120 -120 l-54 -55
-2161 0 -2161 0 -54 55 -54 55 2269 0 2269 0 -54 -55z m-120 -120 l-54 -55
-2041 0 -2041 0 -54 55 -54 55 2149 0 2149 0 -54 -55z m-120 -120 l-54 -55
-1921 0 -1921 0 -54 55 -54 55 2029 0 2029 0 -54 -55z m-120 -120 l-54 -55
-1801 0 -1801 0 -54 55 -54 55 1909 0 1909 0 -54 -55z m2580 -217 c263 -400
492 -884 616 -1298 94 -317 173 -704 215 -1055 31 -262 31 -798 0 -1060 -109
-912 -369 -1649 -829 -2349 l-124 -189 -1532 1532 -1531 1531 1530 1530 c841
841 1533 1530 1536 1530 3 0 57 -78 119 -172z m-7211 -4414 l-1525 -1525 -114
173 c-262 399 -493 884 -616 1298 -94 317 -173 704 -215 1055 -31 262 -31 798
0 1060 93 775 287 1399 633 2028 68 124 261 430 296 470 15 17 107 -73 1541
-1508 l1526 -1525 -1526 -1526z m4516 4516 l-49 -50 -1691 0 -1691 0 -49 50
-49 50 1789 0 1789 0 -49 -50z m-115 -115 l-54 -55 -1571 0 -1571 0 -54 55
-54 55 1679 0 1679 0 -54 -55z m-120 -120 l-54 -55 -1451 0 -1451 0 -54 55
-54 55 1559 0 1559 0 -54 -55z m-120 -120 l-54 -55 -1331 0 -1331 0 -54 55
-54 55 1439 0 1439 0 -54 -55z m-120 -120 l-54 -55 -1211 0 -1211 0 -54 55
-54 55 1319 0 1319 0 -54 -55z m-115 -115 l-49 -50 -1101 0 -1101 0 -49 50
-49 50 1199 0 1199 0 -49 -50z m-115 -115 l-54 -55 -981 0 -981 0 -54 55 -54
55 1089 0 1089 0 -54 -55z m-120 -120 l-54 -55 -861 0 -861 0 -54 55 -54 55
969 0 969 0 -54 -55z m-120 -120 l-54 -55 -741 0 -741 0 -54 55 -54 55 849 0
849 0 -54 -55z m-120 -120 l-54 -55 -621 0 -621 0 -54 55 -54 55 729 0 729 0
-54 -55z m-120 -120 l-54 -55 -501 0 -501 0 -54 55 -54 55 609 0 609 0 -54
-55z m-115 -115 l-49 -50 -391 0 -391 0 -49 50 -49 50 489 0 489 0 -49 -50z
m-115 -115 l-54 -55 -271 0 -271 0 -54 55 -54 55 379 0 379 0 -54 -55z m-120
-120 l-54 -55 -151 0 -151 0 -54 55 -54 55 259 0 259 0 -54 -55z m-70 -68 c0
-1 -30 -33 -68 -70 l-68 -67 -69 70 -69 70 137 0 c75 0 137 -1 137 -3z m-60
-2702 l74 -75 -149 0 -149 0 74 75 c41 41 75 75 75 75 0 0 34 -34 75 -75z
m140 -140 l54 -55 -269 0 -269 0 54 55 54 55 161 0 161 0 54 -55z m115 -115
l49 -50 -379 0 -379 0 49 50 49 50 281 0 281 0 49 -50z m115 -115 l54 -55
-499 0 -499 0 54 55 54 55 391 0 391 0 54 -55z m120 -120 l54 -55 -619 0 -619
0 54 55 54 55 511 0 511 0 54 -55z m120 -120 l54 -55 -739 0 -739 0 54 55 54
55 631 0 631 0 54 -55z m120 -120 l54 -55 -859 0 -859 0 54 55 54 55 751 0
751 0 54 -55z m115 -115 l49 -50 -969 0 -969 0 49 50 49 50 871 0 871 0 49
-50z m115 -115 l54 -55 -1089 0 -1089 0 54 55 54 55 981 0 981 0 54 -55z m120
-120 l54 -55 -1209 0 -1209 0 54 55 54 55 1101 0 1101 0 54 -55z m120 -120
l54 -55 -1329 0 -1329 0 54 55 54 55 1221 0 1221 0 54 -55z m120 -120 l54 -55
-1449 0 -1449 0 54 55 54 55 1341 0 1341 0 54 -55z m120 -120 l54 -55 -1569 0
-1569 0 54 55 54 55 1461 0 1461 0 54 -55z m115 -115 l49 -50 -1679 0 -1679 0
49 50 49 50 1581 0 1581 0 49 -50z m115 -115 l54 -55 -1799 0 -1799 0 54 55
54 55 1691 0 1691 0 54 -55z m120 -120 l54 -55 -1919 0 -1919 0 54 55 54 55
1811 0 1811 0 54 -55z m120 -120 l54 -55 -2039 0 -2039 0 54 55 54 55 1931 0
1931 0 54 -55z m120 -120 l54 -55 -2159 0 -2159 0 54 55 54 55 2051 0 2051 0
54 -55z m115 -115 l49 -50 -2269 0 -2269 0 49 50 49 50 2171 0 2171 0 49 -50z
m115 -115 l54 -55 -2389 0 -2389 0 54 55 54 55 2281 0 2281 0 54 -55z m120
-120 l54 -55 -2509 0 -2509 0 54 55 54 55 2401 0 2401 0 54 -55z m120 -120
l54 -55 -2629 0 -2629 0 54 55 54 55 2521 0 2521 0 54 -55z m120 -120 l54 -55
-2749 0 -2749 0 54 55 54 55 2641 0 2641 0 54 -55z m120 -120 l54 -55 -2869 0
-2869 0 54 55 54 55 2761 0 2761 0 54 -55z m115 -115 l49 -50 -2979 0 -2979 0
49 50 49 50 2881 0 2881 0 49 -50z m99 -99 l38 -39 -23 -16 c-22 -15 -276 -16
-3034 -16 -3185 0 -3016 -2 -3064 37 -3 2 11 19 29 38 l34 35 2991 0 2991 0
38 -39z m-39 -89 c-6 -5 -40 -30 -76 -55 l-67 -47 -2837 0 -2837 0 -67 47
c-36 25 -70 50 -75 55 -6 4 1335 8 2979 8 1644 0 2985 -4 2980 -8z m-190 -125
c-11 -8 -52 -33 -92 -55 l-71 -42 -2627 0 -2627 0 -71 42 c-40 22 -81 47 -92
55 -16 11 435 13 2790 13 2355 0 2806 -2 2790 -13z m-225 -133 c-25 -14 -71
-39 -102 -55 l-57 -29 -2406 0 -2406 0 -57 29 c-31 16 -77 41 -102 55 l-45 26
2610 0 2610 0 -45 -26z m-280 -144 l-95 -49 -2190 0 -2190 0 -95 49 -95 49
2380 0 2380 0 -95 -49z m-141 -64 c-2 -2 -58 -27 -124 -55 l-120 -51 -1900 0
-1900 0 -120 51 c-66 28 -122 53 -124 55 -2 2 962 4 2144 4 1182 0 2146 -2
2144 -4z m-444 -172 l-160 -54 -1540 0 -1540 0 -160 54 -160 54 1860 0 1860 0
-160 -54z m-216 -68 c-8 -7 -256 -76 -327 -91 -110 -23 -2204 -23 -2314 0 -71
15 -319 84 -327 91 -2 2 665 4 1484 4 819 0 1486 -2 1484 -4z m-534 -131 c-33
-7 -141 -23 -240 -34 -579 -68 -841 -68 -1420 0 -398 46 -385 47 710 47 857 0
1001 -2 950 -13z"/>
</g>
</svg>
