<?xml version="1.0" standalone="no"?>
<!DOCTYPE svg PUBLIC "-//W3C//DTD SVG 20010904//EN"
 "http://www.w3.org/TR/2001/REC-SVG-20010904/DTD/svg10.dtd">
<svg version="1.0" xmlns="http://www.w3.org/2000/svg"
 width="1059.000000pt" height="1059.000000pt" viewBox="0 0 1059.000000 1059.000000"
 preserveAspectRatio="xMidYMid meet">
<metadata>
Created by potrace 1.16, written by Peter Selinger 2001-2019
</metadata>
<g transform="translate(0.000000,1059.000000) scale(0.100000,-0.100000)"
fill="#000000" stroke="none">
<path d="M4965 10579 c-590 -52 -854 -104 -1365 -271 -416 -136 -877 -363
-1252 -616 l-128 -86 -30 29 -31 29 -624 -624 -625 -625 31 -31 c17 -18 30
-36 28 -41 -2 -4 -56 -87 -119 -183 -256 -388 -483 -868 -606 -1280 -94 -317
-173 -704 -215 -1055 -31 -262 -31 -798 0 -1060 42 -351 121 -738 215 -1055
124 -415 355 -903 615 -1295 l119 -180 -35 -36 -34 -36 626 -618 626 -618 29
28 30 29 128 -86 c369 -249 832 -478 1237 -611 517 -170 774 -222 1348 -272
322 -27 614 -18 1072 36 523 61 1132 247 1645 504 196 98 467 255 601 348 53
37 100 67 105 67 4 0 18 -10 31 -21 l22 -22 626 618 626 619 -29 28 -29 29
127 192 c460 698 722 1439 831 2352 18 152 22 234 22 530 0 296 -4 378 -22
530 -109 911 -369 1649 -829 2349 l-124 188 26 27 25 27 -624 624 -624 624
-24 -22 c-13 -12 -27 -22 -31 -22 -5 0 -52 30 -105 67 -227 157 -626 372 -921
495 -278 117 -698 247 -977 302 -426 85 -1027 126 -1388 95z m692 -14 c574
-50 831 -102 1348 -272 401 -132 912 -385 1249 -618 l98 -68 -1533 -1533
-1534 -1534 -1527 1527 c-841 841 -1528 1530 -1528 1533 1 10 249 171 395 255
412 240 775 392 1300 544 266 77 592 131 1040 170 165 14 502 12 692 -4z
m4063 -2387 c263 -400 492 -884 616 -1298 94 -317 173 -704 215 -1055 31 -262
31 -798 0 -1060 -109 -912 -369 -1649 -829 -2349 l-124 -189 -1532 1532 -1531
1531 1530 1530 c841 841 1533 1530 1536 1530 3 0 57 -78 119 -172z m-7211
-4414 l-1525 -1525 -114 173 c-262 399 -493 884 -616 1298 -94 317 -173 704
-215 1055 -31 262 -31 798 0 1060 93 775 287 1399 633 2028 68 124 261 430
296 470 15 17 107 -73 1541 -1508 l1526 -1525 -1526 -1526z m5554 -2492 l289
-289 -99 -68 c-336 -233 -847 -486 -1248 -618 -517 -170 -774 -222 -1348 -272
-529 -45 -1255 26 -1750 171 -533 157 -876 302 -1302 551 -134 78 -343 212
-375 241 -3 2 683 690 1525 1527 l1529 1523 1246 -1238 c685 -681 1375 -1369
1533 -1528z"/>
</g>
</svg>
