<?xml version="1.0" standalone="no"?>
<!DOCTYPE svg PUBLIC "-//W3C//DTD SVG 20010904//EN"
 "http://www.w3.org/TR/2001/REC-SVG-20010904/DTD/svg10.dtd">
<svg version="1.0" xmlns="http://www.w3.org/2000/svg"
 width="1059.000000pt" height="1059.000000pt" viewBox="0 0 1059.000000 1059.000000"
 preserveAspectRatio="xMidYMid meet">
<metadata>
Created by potrace 1.16, written by Peter Selinger 2001-2019
</metadata>
<g transform="translate(0.000000,1059.000000) scale(0.100000,-0.100000)"
fill="#000000" stroke="none">
<path d="M5405 10580 c66 -5 194 -14 285 -20 264 -17 680 -86 963 -160 196
-50 517 -160 682 -232 88 -38 261 -121 385 -184 124 -64 221 -111 215 -105
-20 19 -443 231 -600 299 -165 72 -486 182 -682 232 -382 99 -814 161 -1223
174 l-145 5 120 -9z"/>
<path d="M2527 9805 c-492 -287 -1055 -796 -1443 -1305 -142 -186 -308 -432
-364 -540 -27 -54 10 1 80 115 408 671 1104 1362 1743 1729 99 58 128 77 115
76 -2 0 -60 -34 -131 -75z"/>
<path d="M9984 7720 c63 -124 146 -297 184 -385 72 -165 182 -486 232 -682 74
-283 143 -699 160 -963 6 -91 15 -219 20 -285 l9 -120 -5 145 c-13 409 -75
841 -174 1223 -50 196 -160 517 -232 682 -68 157 -280 580 -299 600 -6 6 41
-91 105 -215z"/>
<path d="M6 5160 c13 -409 75 -841 174 -1223 50 -196 160 -517 232 -682 68
-157 280 -580 299 -600 6 -5 -41 91 -105 215 -63 124 -146 297 -184 385 -72
165 -182 486 -232 682 -74 283 -143 699 -160 963 -6 91 -15 219 -20 285 l-9
120 5 -145z"/>
<path d="M9804 2543 c-373 -648 -1109 -1384 -1756 -1757 -65 -38 -118 -70
-118 -72 0 -12 250 138 363 218 540 380 985 825 1365 1365 80 113 230 363 218
363 -2 0 -34 -53 -72 -117z"/>
<path d="M2655 711 c20 -19 443 -231 600 -299 165 -72 486 -182 682 -232 382
-100 813 -161 1223 -174 l145 -4 -120 8 c-66 5 -194 14 -285 20 -263 17 -679
86 -963 160 -196 50 -517 160 -682 232 -88 38 -261 121 -385 184 -124 64 -220
111 -215 105z"/>
</g>
</svg>
