<?xml version="1.0" standalone="no"?>
<!DOCTYPE svg PUBLIC "-//W3C//DTD SVG 20010904//EN"
 "http://www.w3.org/TR/2001/REC-SVG-20010904/DTD/svg10.dtd">
<svg version="1.0" xmlns="http://www.w3.org/2000/svg"
 width="1059.000000pt" height="1059.000000pt" viewBox="0 0 1059.000000 1059.000000"
 preserveAspectRatio="xMidYMid meet">
<metadata>
Created by potrace 1.16, written by Peter Selinger 2001-2019
</metadata>
<g transform="translate(0.000000,1059.000000) scale(0.100000,-0.100000)"
fill="#000000" stroke="none">
<path d="M4965 10579 c-590 -52 -854 -104 -1365 -271 -1001 -327 -1932 -1009
-2564 -1878 -295 -405 -510 -792 -679 -1225 -150 -383 -269 -882 -328 -1380
-31 -262 -31 -798 0 -1060 59 -498 178 -997 328 -1380 252 -643 624 -1226
1119 -1750 570 -605 1335 -1094 2109 -1348 517 -170 774 -222 1348 -272 529
-45 1255 26 1750 171 532 157 876 302 1302 551 899 525 1636 1336 2103 2313
198 415 330 842 421 1360 61 350 74 499 74 885 0 296 -4 378 -22 530 -122
1020 -426 1807 -1007 2605 -415 571 -966 1070 -1569 1423 -426 249 -770 394
-1302 551 -473 139 -1235 217 -1718 175z m692 -14 c574 -50 831 -102 1348
-272 317 -104 648 -256 980 -450 897 -524 1626 -1327 2093 -2303 240 -503 395
-1065 473 -1715 31 -262 31 -798 0 -1060 -122 -1020 -426 -1807 -1007 -2605
-488 -672 -1130 -1213 -1894 -1595 -513 -257 -1122 -443 -1645 -504 -573 -67
-847 -67 -1420 0 -523 61 -1132 247 -1645 504 -874 438 -1552 1049 -2101 1895
-240 368 -467 855 -585 1250 -94 317 -173 704 -215 1055 -31 262 -31 798 0
1060 59 498 178 997 328 1380 295 753 778 1456 1378 2004 523 479 1195 873
1855 1089 511 167 775 219 1365 271 165 14 502 12 692 -4z"/>
<path d="M4995 10360 c-494 -29 -1127 -170 -1565 -348 -522 -211 -1003 -504
-1465 -893 -564 -474 -1083 -1206 -1387 -1959 -152 -375 -264 -830 -329 -1345
-19 -146 -22 -220 -22 -520 0 -300 3 -374 22 -520 65 -515 177 -970 329 -1345
251 -620 652 -1236 1106 -1698 456 -465 1089 -885 1730 -1148 372 -153 843
-269 1361 -335 146 -19 220 -22 520 -22 300 0 374 3 520 22 515 65 970 177
1345 329 620 251 1236 652 1698 1106 465 456 885 1090 1148 1730 153 372 269
843 335 1361 19 146 22 220 22 520 0 300 -3 374 -22 520 -114 895 -351 1558
-808 2258 -506 776 -1154 1347 -2023 1782 -496 249 -1046 406 -1691 485 -189
23 -611 33 -824 20z m824 -30 c871 -106 1555 -351 2254 -807 602 -393 1057
-848 1450 -1450 457 -700 694 -1363 808 -2258 19 -146 22 -220 22 -520 0 -300
-3 -374 -22 -520 -114 -895 -351 -1557 -808 -2258 -394 -603 -853 -1061 -1464
-1459 -597 -389 -1193 -624 -1899 -747 -367 -64 -482 -74 -865 -74 -300 0
-374 3 -520 22 -895 114 -1558 351 -2258 808 -603 394 -1061 853 -1460 1464
-388 597 -623 1193 -746 1899 -64 367 -74 482 -74 865 0 300 3 374 22 520 65
515 177 970 329 1345 303 750 819 1480 1377 1949 462 389 943 682 1465 893
438 178 1071 319 1565 348 213 13 635 3 824 -20z"/>
<path d="M5010 9920 c-480 -30 -1100 -177 -1517 -359 -609 -266 -1010 -539
-1468 -996 -460 -461 -725 -854 -1011 -1502 -136 -309 -264 -809 -325 -1273
-19 -141 -22 -213 -22 -495 0 -282 3 -354 22 -495 60 -456 189 -963 321 -1264
73 -167 224 -468 308 -616 166 -290 404 -592 707 -895 303 -303 605 -541 895
-707 157 -89 466 -243 635 -316 305 -131 793 -254 1245 -313 141 -19 213 -22
495 -22 282 0 354 3 495 22 464 61 964 189 1273 325 648 286 1041 551 1502
1011 463 463 742 878 1007 1495 151 350 266 797 329 1280 19 141 22 214 22
495 0 281 -3 354 -22 495 -64 487 -183 948 -336 1298 -267 612 -542 1019
-1000 1477 -458 458 -865 733 -1477 1000 -350 153 -824 276 -1293 335 -181 23
-582 33 -785 20z m785 -30 c469 -59 943 -182 1293 -335 610 -266 1019 -543
1472 -995 452 -453 729 -862 995 -1472 153 -350 272 -811 336 -1298 19 -141
22 -214 22 -495 0 -281 -3 -354 -22 -495 -63 -483 -178 -930 -329 -1280 -264
-615 -545 -1032 -1002 -1490 -456 -455 -851 -721 -1497 -1006 -309 -136 -809
-264 -1273 -325 -141 -19 -213 -22 -495 -22 -282 0 -354 3 -495 22 -452 59
-940 182 -1245 313 -169 73 -478 227 -635 316 -288 164 -592 404 -890 702
-298 298 -538 602 -702 890 -84 148 -235 449 -308 616 -132 301 -261 808 -321
1264 -19 141 -22 213 -22 495 0 282 3 354 22 495 61 464 189 964 325 1273 285
646 551 1041 1006 1497 453 452 857 726 1463 991 417 182 1037 329 1517 359
203 13 604 3 785 -20z"/>
<path d="M5025 9480 c-561 -40 -1226 -226 -1669 -467 -281 -153 -566 -345
-761 -512 -422 -362 -743 -762 -1018 -1267 -217 -399 -380 -944 -453 -1514
-25 -190 -25 -660 0 -850 73 -570 236 -1115 453 -1514 153 -281 345 -566 512
-761 364 -424 760 -742 1268 -1018 398 -217 943 -380 1513 -453 190 -25 660
-25 850 0 570 73 1115 236 1514 453 696 378 1218 864 1619 1505 292 466 460
910 566 1488 55 303 65 409 65 725 0 316 -10 422 -65 725 -105 571 -297 1079
-566 1493 -201 311 -387 540 -624 774 -223 219 -418 373 -716 566 -477 310
-1089 521 -1756 607 -176 23 -548 33 -732 20z m732 -30 c667 -86 1279 -297
1756 -607 573 -372 958 -757 1330 -1330 314 -483 524 -1098 613 -1793 25 -190
25 -660 0 -850 -73 -570 -236 -1115 -453 -1513 -275 -507 -589 -898 -1008
-1258 -195 -167 -480 -359 -761 -512 -399 -217 -944 -380 -1514 -453 -190 -25
-660 -25 -850 0 -570 73 -1115 236 -1513 453 -507 275 -898 589 -1258 1008
-167 195 -359 480 -512 761 -217 399 -380 944 -453 1514 -25 190 -25 660 0
850 73 570 236 1115 453 1514 274 503 591 899 1008 1257 195 167 480 359 761
512 443 241 1108 427 1669 467 184 13 556 3 732 -20z"/>
<path d="M4970 9034 c-388 -42 -820 -147 -1115 -272 -396 -167 -663 -334
-1010 -631 -398 -342 -677 -703 -927 -1206 -178 -357 -284 -717 -349 -1180
-32 -233 -32 -669 0 -899 66 -471 173 -830 354 -1191 289 -577 603 -955 1142
-1376 512 -399 1169 -645 1934 -724 430 -45 944 17 1471 177 355 107 767 322
1060 551 542 425 852 800 1142 1382 178 357 284 717 349 1180 32 233 32 669 0
899 -66 471 -173 830 -354 1191 -289 577 -603 955 -1142 1376 -290 226 -704
441 -1055 547 -537 163 -1056 224 -1500 176z m636 -9 c399 -42 826 -145 1129
-273 395 -166 661 -332 1005 -627 394 -337 668 -692 917 -1190 181 -361 288
-720 354 -1191 32 -230 32 -666 0 -899 -65 -463 -171 -823 -349 -1180 -289
-581 -594 -950 -1132 -1372 -513 -402 -1170 -649 -1939 -728 -430 -45 -944 17
-1471 177 -351 106 -765 321 -1055 547 -535 417 -844 790 -1132 1366 -181 361
-288 720 -354 1191 -32 230 -32 666 0 899 65 463 171 823 349 1180 289 581
594 950 1132 1372 293 229 705 444 1060 551 537 163 1041 223 1486 177z"/>
<path d="M5035 8598 c-286 -32 -449 -60 -591 -103 -628 -188 -986 -389 -1431
-803 -214 -199 -342 -358 -531 -657 -247 -392 -396 -809 -473 -1320 -33 -218
-33 -623 0 -840 77 -513 226 -928 473 -1320 188 -299 319 -461 532 -659 443
-410 796 -609 1413 -796 231 -70 593 -120 868 -120 258 0 630 50 840 112 627
185 995 391 1442 806 212 197 354 372 538 667 239 379 391 807 466 1310 33
218 33 623 0 840 -76 504 -228 931 -466 1310 -184 294 -328 473 -539 669 -443
410 -796 609 -1413 796 -312 94 -819 143 -1128 108z m545 -13 c367 -41 534
-79 855 -194 440 -158 762 -357 1136 -703 206 -190 351 -370 534 -663 238
-379 390 -806 466 -1310 33 -217 33 -622 0 -840 -75 -503 -227 -931 -466
-1310 -183 -292 -326 -470 -531 -661 -444 -411 -815 -618 -1439 -802 -210 -62
-582 -112 -840 -112 -275 0 -637 50 -868 120 -615 186 -968 385 -1408 792
-208 192 -339 355 -527 653 -247 392 -396 807 -473 1320 -33 217 -33 622 0
840 77 511 226 928 473 1320 187 297 317 458 524 651 443 410 803 611 1428
799 142 43 305 71 591 103 128 15 399 13 545 -3z"/>
<path d="M5065 8381 c-483 -37 -1032 -220 -1423 -474 -231 -151 -322 -224
-516 -416 -324 -320 -538 -639 -695 -1033 -89 -225 -161 -495 -202 -758 -19
-123 -23 -184 -23 -405 0 -221 4 -282 23 -405 75 -479 229 -901 454 -1248 151
-231 224 -322 416 -516 321 -325 638 -538 1033 -695 225 -89 495 -161 758
-202 123 -19 184 -23 405 -23 221 0 282 4 405 23 737 116 1295 395 1791 897
184 187 238 252 411 504 214 313 383 776 459 1260 19 123 23 184 23 405 0 221
-4 282 -23 405 -43 274 -113 533 -212 783 -108 270 -187 406 -415 712 -103
138 -421 455 -554 552 -312 227 -433 297 -697 402 -249 98 -513 170 -775 210
-154 23 -477 34 -643 22z m643 -32 c262 -40 526 -112 775 -210 264 -105 385
-175 697 -402 133 -97 442 -404 544 -542 228 -306 307 -442 415 -712 99 -250
169 -509 212 -783 19 -123 23 -184 23 -405 0 -221 -4 -282 -23 -405 -43 -274
-113 -533 -212 -783 -105 -264 -174 -383 -402 -697 -97 -133 -404 -442 -542
-544 -207 -154 -331 -234 -473 -305 -318 -160 -647 -263 -1022 -322 -123 -19
-184 -23 -405 -23 -221 0 -282 4 -405 23 -735 115 -1296 396 -1786 892 -187
189 -261 282 -411 511 -225 347 -379 769 -454 1248 -19 123 -23 184 -23 405 0
221 4 282 23 405 115 734 396 1296 892 1786 306 302 626 514 1001 663 286 113
653 200 933 222 166 12 489 1 643 -22z"/>
<path d="M5020 7924 c-303 -40 -401 -65 -727 -187 -223 -84 -374 -172 -633
-367 -169 -128 -392 -363 -527 -555 -192 -275 -310 -536 -398 -885 -67 -265
-78 -358 -78 -635 0 -214 3 -268 22 -375 93 -527 289 -970 576 -1305 256 -299
525 -514 834 -670 219 -109 519 -213 706 -244 410 -68 590 -68 1000 0 185 31
494 138 714 249 355 178 712 488 948 825 234 335 379 699 454 1145 19 115 23
171 23 375 0 204 -4 260 -23 375 -75 442 -218 806 -450 1140 -125 180 -368
438 -521 555 -310 234 -462 314 -864 451 -311 106 -738 150 -1056 108z m567
-14 c295 -38 416 -69 739 -193 276 -106 605 -327 824 -553 203 -209 301 -336
425 -548 150 -256 267 -595 326 -946 19 -115 23 -171 23 -375 0 -204 -4 -260
-23 -375 -59 -351 -173 -682 -323 -940 -305 -524 -771 -923 -1318 -1130 -290
-109 -390 -134 -705 -175 -222 -28 -433 -19 -760 36 -187 31 -487 135 -706
244 -308 155 -572 366 -824 660 -287 335 -483 778 -576 1305 -19 107 -22 161
-22 375 0 277 11 370 78 635 88 349 206 610 398 885 134 192 349 418 517 545
319 241 454 310 885 456 293 100 710 137 1042 94z"/>
<path d="M5130 7494 c-255 -19 -595 -116 -850 -244 -288 -144 -610 -437 -832
-755 -110 -158 -219 -410 -282 -650 -58 -219 -70 -315 -70 -550 0 -235 12
-331 70 -550 66 -252 173 -494 297 -670 218 -311 530 -592 817 -735 206 -103
463 -186 700 -226 147 -25 483 -25 630 0 322 54 673 187 885 334 319 222 611
544 755 832 103 206 186 463 226 700 25 147 25 483 0 630 -40 237 -123 494
-226 700 -143 287 -424 599 -735 817 -226 159 -556 288 -879 344 -109 19 -388
31 -506 23z m506 -33 c493 -85 892 -293 1230 -643 283 -292 445 -580 548 -973
58 -219 70 -315 70 -550 0 -235 -12 -331 -70 -550 -41 -157 -103 -324 -174
-465 -144 -288 -429 -602 -745 -822 -212 -147 -563 -280 -885 -334 -147 -25
-483 -25 -630 0 -414 70 -783 232 -1065 469 -383 322 -618 688 -739 1152 -58
219 -70 315 -70 550 0 235 12 331 70 550 41 157 103 324 174 465 144 288 429
602 745 822 251 174 702 328 1035 352 118 8 397 -4 506 -23z"/>
<path d="M5055 7040 c-307 -49 -466 -108 -715 -268 -416 -267 -688 -682 -786
-1197 -24 -126 -24 -436 0 -560 99 -517 371 -931 786 -1197 254 -163 409 -220
720 -268 159 -25 311 -25 470 0 309 47 468 107 720 268 366 235 613 570 738
1002 54 183 65 266 65 475 1 209 -11 289 -65 475 -144 496 -429 842 -908 1103
-279 151 -697 220 -1025 167z m475 -10 c311 -48 466 -105 720 -268 411 -263
677 -670 776 -1187 24 -124 24 -434 0 -560 -98 -515 -364 -922 -776 -1187
-252 -161 -411 -221 -720 -268 -212 -33 -424 -21 -680 39 -170 40 -317 105
-510 229 -410 262 -677 672 -776 1187 -24 124 -24 434 0 560 82 432 300 816
601 1059 225 182 474 310 700 361 256 57 457 68 665 35z"/>
<path d="M5175 6614 c-234 -24 -401 -84 -610 -220 -116 -74 -295 -253 -369
-369 -164 -254 -219 -437 -219 -730 0 -107 5 -190 17 -253 70 -383 354 -750
726 -937 107 -54 218 -92 322 -111 126 -23 380 -23 506 0 383 70 750 355 938
728 95 188 127 334 127 573 0 292 -55 478 -219 732 -71 111 -256 296 -367 367
-166 107 -325 174 -474 201 -90 15 -306 26 -378 19z m378 -29 c234 -41 476
-174 667 -365 192 -192 322 -430 366 -672 23 -126 23 -380 0 -506 -70 -381
-348 -742 -718 -928 -188 -95 -334 -127 -573 -127 -107 0 -190 5 -253 17 -381
70 -742 348 -927 716 -96 190 -128 336 -128 575 0 183 17 301 63 424 122 333
359 599 672 757 142 71 278 110 453 128 72 7 288 -4 378 -19z"/>
<path d="M5175 6394 c-303 -33 -580 -197 -777 -459 -80 -107 -156 -274 -184
-408 -24 -112 -24 -352 0 -464 28 -134 104 -301 184 -408 171 -227 413 -388
665 -441 112 -24 352 -24 464 0 134 28 301 104 408 184 227 171 388 412 441
665 24 113 24 351 0 464 -65 308 -299 610 -581 750 -113 56 -179 80 -265 98
-75 16 -282 27 -355 19z m355 -29 c86 -18 152 -42 265 -98 278 -138 506 -432
571 -740 24 -113 24 -351 0 -464 -64 -303 -291 -600 -561 -736 -192 -96 -295
-121 -510 -121 -215 0 -318 25 -509 121 -179 90 -369 280 -459 458 -96 192
-121 295 -121 510 0 215 25 318 121 510 156 308 496 541 848 579 73 8 280 -3
355 -19z"/>
<path d="M5145 5939 c-112 -32 -234 -94 -288 -147 -159 -154 -220 -292 -220
-497 -1 -203 61 -343 220 -497 86 -84 306 -168 438 -168 132 0 352 84 438 168
106 102 181 224 208 332 17 72 17 260 0 330 -42 170 -185 346 -341 419 -175
82 -314 100 -455 60z m295 -10 c110 -30 238 -93 288 -142 100 -96 176 -220
203 -327 17 -70 17 -258 0 -330 -26 -106 -103 -231 -203 -327 -81 -79 -305
-163 -433 -163 -128 0 -352 84 -433 163 -154 148 -216 291 -215 492 0 167 35
275 128 395 72 93 125 137 215 179 175 82 308 100 450 60z"/>
</g>
</svg>
