<?xml version="1.0" standalone="no"?>
<!DOCTYPE svg PUBLIC "-//W3C//DTD SVG 20010904//EN"
 "http://www.w3.org/TR/2001/REC-SVG-20010904/DTD/svg10.dtd">
<svg version="1.0" xmlns="http://www.w3.org/2000/svg"
 width="1059.000000pt" height="1059.000000pt" viewBox="0 0 1059.000000 1059.000000"
 preserveAspectRatio="xMidYMid meet">
<metadata>
Created by potrace 1.16, written by Peter Selinger 2001-2019
</metadata>
<g transform="translate(0.000000,1059.000000) scale(0.100000,-0.100000)"
fill="#000000" stroke="none">
<path d="M4965 10579 c-590 -52 -854 -104 -1365 -271 -1001 -327 -1932 -1009
-2564 -1878 -295 -405 -510 -792 -679 -1225 -150 -383 -269 -882 -328 -1380
-31 -262 -31 -798 0 -1060 59 -498 178 -997 328 -1380 252 -643 624 -1226
1119 -1750 570 -605 1335 -1094 2109 -1348 517 -170 774 -222 1348 -272 529
-45 1255 26 1750 171 532 157 876 302 1302 551 899 525 1636 1336 2103 2313
198 415 330 842 421 1360 61 350 74 499 74 885 0 296 -4 378 -22 530 -122
1020 -426 1807 -1007 2605 -415 571 -966 1070 -1569 1423 -426 249 -770 394
-1302 551 -473 139 -1235 217 -1718 175z m692 -14 c574 -50 831 -102 1348
-272 317 -104 648 -256 980 -450 897 -524 1626 -1327 2093 -2303 240 -503 395
-1065 473 -1715 31 -262 31 -798 0 -1060 -122 -1020 -426 -1807 -1007 -2605
-488 -672 -1130 -1213 -1894 -1595 -513 -257 -1122 -443 -1645 -504 -573 -67
-847 -67 -1420 0 -523 61 -1132 247 -1645 504 -874 438 -1552 1049 -2101 1895
-240 368 -467 855 -585 1250 -94 317 -173 704 -215 1055 -31 262 -31 798 0
1060 59 498 178 997 328 1380 295 753 778 1456 1378 2004 523 479 1195 873
1855 1089 511 167 775 219 1365 271 165 14 502 12 692 -4z"/>
</g>
</svg>
