<?xml version="1.0" standalone="no"?>
<!DOCTYPE svg PUBLIC "-//W3C//DTD SVG 20010904//EN"
 "http://www.w3.org/TR/2001/REC-SVG-20010904/DTD/svg10.dtd">
<svg version="1.0" xmlns="http://www.w3.org/2000/svg"
 width="1059.000000pt" height="1059.000000pt" viewBox="0 0 1059.000000 1059.000000"
 preserveAspectRatio="xMidYMid meet">
<metadata>
Created by potrace 1.16, written by Peter Selinger 2001-2019
</metadata>
<g transform="translate(0.000000,1059.000000) scale(0.100000,-0.100000)"
fill="#000000" stroke="none">
<path d="M4965 10579 c-590 -52 -854 -104 -1365 -271 -1001 -327 -1932 -1009
-2564 -1878 -295 -405 -510 -792 -679 -1225 -150 -383 -269 -882 -328 -1380
-31 -262 -31 -798 0 -1060 59 -498 178 -997 328 -1380 252 -643 624 -1226
1119 -1750 570 -605 1335 -1094 2109 -1348 517 -170 774 -222 1348 -272 529
-45 1255 26 1750 171 532 157 876 302 1302 551 899 525 1636 1336 2103 2313
198 415 330 842 421 1360 61 350 74 499 74 885 0 296 -4 378 -22 530 -122
1020 -426 1807 -1007 2605 -415 571 -966 1070 -1569 1423 -426 249 -770 394
-1302 551 -473 139 -1235 217 -1718 175z m692 -14 c574 -50 831 -102 1348
-272 317 -104 648 -256 980 -450 897 -524 1626 -1327 2093 -2303 240 -503 395
-1065 473 -1715 31 -262 31 -798 0 -1060 -122 -1020 -426 -1807 -1007 -2605
-488 -672 -1130 -1213 -1894 -1595 -513 -257 -1122 -443 -1645 -504 -573 -67
-847 -67 -1420 0 -523 61 -1132 247 -1645 504 -874 438 -1552 1049 -2101 1895
-240 368 -467 855 -585 1250 -94 317 -173 704 -215 1055 -31 262 -31 798 0
1060 59 498 178 997 328 1380 295 753 778 1456 1378 2004 523 479 1195 873
1855 1089 511 167 775 219 1365 271 165 14 502 12 692 -4z"/>
<path d="M4925 10244 c-458 -41 -959 -150 -1335 -288 -321 -118 -678 -293
-916 -449 -462 -301 -788 -573 -1068 -892 -408 -464 -689 -914 -908 -1455
-176 -434 -271 -811 -339 -1345 -19 -146 -22 -220 -22 -520 0 -383 10 -498 74
-865 100 -575 287 -1089 592 -1630 194 -345 567 -818 863 -1096 329 -307 791
-637 1138 -811 466 -234 795 -351 1256 -447 728 -152 1340 -152 2070 0 461 96
790 213 1256 447 347 174 810 504 1138 811 301 283 671 754 868 1106 305 545
487 1045 587 1620 64 367 74 482 74 865 0 300 -3 374 -22 520 -30 233 -75 488
-122 685 -123 515 -395 1129 -692 1560 -360 523 -718 893 -1197 1239 -333 240
-562 374 -925 538 -687 311 -1632 474 -2370 407z m720 -9 c595 -52 1188 -198
1650 -408 363 -164 592 -298 925 -538 477 -344 828 -708 1187 -1229 297 -431
569 -1045 692 -1560 47 -197 92 -452 122 -685 19 -146 22 -220 22 -520 0 -383
-10 -498 -74 -865 -100 -575 -282 -1075 -587 -1620 -256 -457 -689 -972 -1102
-1310 -462 -379 -950 -661 -1480 -856 -497 -183 -1175 -304 -1705 -304 -531 0
-1207 121 -1705 304 -321 118 -678 293 -916 449 -666 434 -1067 821 -1491
1437 -296 431 -569 1046 -692 1560 -47 197 -92 452 -122 685 -19 146 -22 220
-22 520 0 300 3 374 22 520 68 534 163 911 339 1345 219 541 500 992 908 1455
276 314 597 582 1058 882 337 221 850 448 1256 558 597 161 1203 225 1715 180z"/>
<path d="M5010 9920 c-480 -30 -1100 -177 -1517 -359 -609 -266 -1010 -539
-1468 -996 -460 -461 -725 -854 -1011 -1502 -136 -309 -264 -809 -325 -1273
-19 -141 -22 -213 -22 -495 0 -282 3 -354 22 -495 60 -456 189 -963 321 -1264
73 -167 224 -468 308 -616 166 -290 404 -592 707 -895 303 -303 605 -541 895
-707 157 -89 466 -243 635 -316 305 -131 793 -254 1245 -313 141 -19 213 -22
495 -22 282 0 354 3 495 22 464 61 964 189 1273 325 648 286 1041 551 1502
1011 463 463 742 878 1007 1495 151 350 266 797 329 1280 19 141 22 214 22
495 0 281 -3 354 -22 495 -64 487 -183 948 -336 1298 -267 612 -542 1019
-1000 1477 -458 458 -865 733 -1477 1000 -350 153 -824 276 -1293 335 -181 23
-582 33 -785 20z m785 -30 c469 -59 943 -182 1293 -335 610 -266 1019 -543
1472 -995 452 -453 729 -862 995 -1472 153 -350 272 -811 336 -1298 19 -141
22 -214 22 -495 0 -281 -3 -354 -22 -495 -63 -483 -178 -930 -329 -1280 -264
-615 -545 -1032 -1002 -1490 -456 -455 -851 -721 -1497 -1006 -309 -136 -809
-264 -1273 -325 -141 -19 -213 -22 -495 -22 -282 0 -354 3 -495 22 -452 59
-940 182 -1245 313 -169 73 -478 227 -635 316 -288 164 -592 404 -890 702
-298 298 -538 602 -702 890 -84 148 -235 449 -308 616 -132 301 -261 808 -321
1264 -19 141 -22 213 -22 495 0 282 3 354 22 495 61 464 189 964 325 1273 285
646 551 1041 1006 1497 453 452 857 726 1463 991 417 182 1037 329 1517 359
203 13 604 3 785 -20z"/>
<path d="M5015 9590 c-360 -23 -838 -123 -1150 -239 -731 -271 -1300 -658
-1803 -1226 -281 -318 -536 -717 -707 -1110 -177 -405 -271 -755 -336 -1245
-32 -239 -32 -711 0 -950 65 -490 159 -841 336 -1245 386 -886 1087 -1638
1948 -2089 478 -251 929 -390 1517 -467 240 -32 711 -32 950 0 490 65 840 159
1245 336 886 386 1636 1085 2088 1945 250 477 390 930 468 1512 19 139 22 210
22 483 0 273 -3 344 -22 483 -64 481 -160 835 -336 1237 -292 671 -786 1293
-1373 1727 -730 542 -1590 837 -2482 852 -135 2 -299 1 -365 -4z m765 -30
c566 -73 1032 -217 1507 -466 769 -403 1404 -1038 1807 -1807 249 -475 389
-927 467 -1509 19 -139 22 -210 22 -483 0 -273 -3 -344 -22 -483 -78 -582
-218 -1035 -468 -1512 -403 -767 -1036 -1400 -1803 -1803 -481 -252 -929 -390
-1520 -468 -239 -32 -710 -32 -950 0 -588 77 -1039 216 -1517 467 -768 402
-1405 1039 -1807 1807 -251 478 -389 926 -467 1517 -32 239 -32 711 0 950 65
490 159 840 336 1245 171 393 426 792 707 1110 496 560 1065 946 1793 1216
312 116 790 216 1150 239 194 13 589 3 765 -20z"/>
<path d="M5010 9258 c-634 -66 -945 -152 -1493 -412 -230 -109 -565 -326 -742
-482 -460 -403 -725 -725 -978 -1189 -179 -329 -349 -811 -406 -1155 -57 -337
-65 -425 -65 -725 0 -300 7 -381 65 -726 57 -344 225 -821 406 -1154 253 -464
519 -787 978 -1190 175 -153 513 -373 738 -479 442 -210 808 -328 1167 -375
516 -68 714 -68 1230 0 360 47 719 162 1163 373 230 109 565 326 742 482 460
403 725 725 978 1189 179 329 349 811 406 1155 57 337 65 425 65 725 0 300 -7
381 -65 726 -57 344 -225 821 -406 1154 -253 464 -519 787 -978 1190 -175 153
-513 373 -738 479 -339 162 -558 242 -872 320 -331 82 -891 126 -1195 94z
m596 -13 c606 -62 927 -152 1471 -411 225 -107 563 -326 738 -480 454 -397
716 -716 968 -1179 181 -333 349 -810 406 -1154 58 -345 65 -426 65 -726 0
-300 -8 -388 -65 -725 -57 -344 -227 -826 -406 -1155 -252 -462 -514 -782
-968 -1179 -177 -156 -512 -373 -742 -482 -444 -211 -803 -326 -1163 -373
-516 -68 -714 -68 -1230 0 -359 47 -725 165 -1167 375 -225 107 -563 326 -738
480 -454 397 -716 716 -968 1179 -181 333 -349 810 -406 1154 -58 345 -65 426
-65 726 0 300 8 388 65 725 57 344 227 826 406 1155 252 462 514 782 968 1179
177 156 512 373 742 482 548 260 859 346 1493 412 139 15 436 13 596 -3z"/>
<path d="M5020 8928 c-494 -52 -725 -109 -1152 -283 -229 -94 -565 -286 -743
-424 -170 -132 -353 -292 -430 -378 -357 -395 -451 -524 -626 -867 -172 -336
-261 -589 -338 -951 -60 -284 -74 -422 -74 -730 0 -308 14 -446 74 -730 77
-365 165 -612 338 -950 177 -347 264 -468 626 -869 77 -85 259 -245 430 -378
178 -138 514 -329 745 -423 321 -132 590 -210 839 -245 476 -66 696 -66 1172
0 507 71 1179 354 1584 669 170 132 353 292 430 378 375 414 486 574 709 1021
120 239 252 711 307 1092 32 225 32 645 0 870 -55 383 -186 851 -306 1090
-188 376 -318 579 -521 811 -216 246 -258 289 -384 398 -269 231 -436 345
-740 504 -214 112 -559 244 -790 302 -327 82 -853 125 -1150 93z m571 -13
c486 -51 701 -104 1129 -280 231 -94 567 -285 745 -423 166 -129 352 -293 425
-374 378 -420 480 -568 705 -1018 82 -163 196 -521 254 -795 60 -284 74 -422
74 -730 0 -308 -14 -446 -74 -730 -57 -270 -174 -635 -255 -797 -222 -445
-330 -601 -704 -1016 -73 -81 -259 -244 -425 -373 -405 -315 -1077 -598 -1584
-669 -476 -66 -696 -66 -1172 0 -508 71 -1178 353 -1584 668 -166 129 -352
293 -425 374 -362 402 -445 517 -621 863 -173 338 -261 585 -338 950 -60 284
-74 422 -74 730 0 308 14 446 74 730 77 362 166 615 338 951 175 342 265 467
621 862 73 81 259 244 425 373 178 138 514 330 743 424 427 174 658 231 1152
283 137 15 417 13 571 -3z"/>
<path d="M5035 8598 c-286 -32 -449 -60 -591 -103 -628 -188 -986 -389 -1431
-803 -214 -199 -342 -358 -531 -657 -247 -392 -396 -809 -473 -1320 -33 -218
-33 -623 0 -840 77 -513 226 -928 473 -1320 188 -299 319 -461 532 -659 443
-410 796 -609 1413 -796 231 -70 593 -120 868 -120 258 0 630 50 840 112 627
185 995 391 1442 806 212 197 354 372 538 667 239 379 391 807 466 1310 33
218 33 623 0 840 -76 504 -228 931 -466 1310 -184 294 -328 473 -539 669 -443
410 -796 609 -1413 796 -312 94 -819 143 -1128 108z m545 -13 c367 -41 534
-79 855 -194 440 -158 762 -357 1136 -703 206 -190 351 -370 534 -663 238
-379 390 -806 466 -1310 33 -217 33 -622 0 -840 -75 -503 -227 -931 -466
-1310 -183 -292 -326 -470 -531 -661 -444 -411 -815 -618 -1439 -802 -210 -62
-582 -112 -840 -112 -275 0 -637 50 -868 120 -615 186 -968 385 -1408 792
-208 192 -339 355 -527 653 -247 392 -396 807 -473 1320 -33 217 -33 622 0
840 77 511 226 928 473 1320 187 297 317 458 524 651 443 410 803 611 1428
799 142 43 305 71 591 103 128 15 399 13 545 -3z"/>
</g>
</svg>
