<?xml version="1.0" standalone="no"?>
<!DOCTYPE svg PUBLIC "-//W3C//DTD SVG 20010904//EN"
 "http://www.w3.org/TR/2001/REC-SVG-20010904/DTD/svg10.dtd">
<svg version="1.0" xmlns="http://www.w3.org/2000/svg"
 width="1059.000000pt" height="1059.000000pt" viewBox="0 0 1059.000000 1059.000000"
 preserveAspectRatio="xMidYMid meet">
<metadata>
Created by potrace 1.16, written by Peter Selinger 2001-2019
</metadata>
<g transform="translate(0.000000,1059.000000) scale(0.100000,-0.100000)"
fill="#000000" stroke="none">
<path d="M5405 10580 c66 -5 194 -14 285 -20 264 -17 680 -86 963 -160 196
-50 517 -160 682 -232 88 -38 261 -121 385 -184 124 -64 221 -111 215 -105
-20 19 -443 231 -600 299 -165 72 -486 182 -682 232 -382 99 -814 161 -1223
174 l-145 5 120 -9z"/>
<path d="M2527 9805 c-492 -287 -1055 -796 -1443 -1305 -142 -186 -308 -432
-364 -540 -27 -54 10 1 80 115 408 671 1104 1362 1743 1729 99 58 128 77 115
76 -2 0 -60 -34 -131 -75z"/>
<path d="M9984 7720 c63 -124 146 -297 184 -385 72 -165 182 -486 232 -682 74
-283 143 -699 160 -963 6 -91 15 -219 20 -285 l9 -120 -5 145 c-13 409 -75
841 -174 1223 -50 196 -160 517 -232 682 -68 157 -280 580 -299 600 -6 6 41
-91 105 -215z"/>
<path d="M5165 7493 c-252 -20 -373 -41 -535 -95 -88 -29 -313 -127 -405 -176
-64 -34 -31 -25 43 12 288 144 510 213 753 236 235 22 284 27 234 27 -27 0
-68 -2 -90 -4z"/>
<path d="M6395 7203 c6 -5 57 -43 115 -83 297 -206 404 -313 610 -610 73 -105
110 -152 75 -95 -34 56 -154 223 -216 301 -113 141 -227 244 -437 393 -104 72
-163 111 -147 94z"/>
<path d="M5291 7056 c2 -2 63 -9 134 -16 72 -6 176 -20 232 -31 124 -24 345
-102 448 -159 41 -23 75 -39 75 -36 0 2 -34 23 -75 46 -105 58 -326 136 -453
160 -129 24 -374 49 -361 36z"/>
<path d="M4355 6783 c-215 -133 -470 -395 -574 -590 -24 -46 -3 -21 34 40 123
201 341 418 543 542 54 33 70 45 59 45 -1 0 -29 -17 -62 -37z"/>
<path d="M5190 6613 c-126 -10 -244 -35 -344 -72 -99 -37 -216 -95 -216 -107
0 -3 24 8 54 25 30 17 103 49 162 72 105 39 141 46 389 77 69 9 42 12 -45 5z"/>
<path d="M5963 6428 c10 -7 46 -31 80 -52 80 -51 282 -253 333 -333 57 -90 69
-104 38 -48 -39 71 -76 118 -173 218 -96 99 -171 160 -246 201 -27 15 -42 21
-32 14z"/>
<path d="M3365 6362 c-195 -399 -251 -600 -269 -977 l-5 -100 9 85 c5 47 14
136 20 199 23 244 92 465 237 755 19 37 33 70 30 72 -2 2 -12 -13 -22 -34z"/>
<path d="M5291 6176 c2 -2 49 -9 104 -16 102 -12 213 -44 298 -86 26 -14 47
-22 47 -19 0 9 -94 52 -170 78 -77 26 -296 60 -279 43z"/>
<path d="M6850 6105 c57 -103 135 -324 159 -448 11 -56 25 -160 31 -232 7 -71
14 -132 16 -134 13 -13 -12 232 -36 361 -24 127 -102 348 -160 453 -23 41 -44
75 -46 75 -3 0 13 -34 36 -75z"/>
<path d="M4805 6030 c-63 -36 -214 -189 -250 -252 -15 -27 -25 -48 -22 -48 3
0 19 24 36 53 37 64 179 205 244 242 26 15 47 29 47 31 0 6 -2 5 -55 -26z"/>
<path d="M4121 5906 c-80 -140 -131 -330 -144 -541 -7 -102 6 -31 23 130 13
126 49 245 115 378 24 48 42 87 40 87 -2 0 -17 -24 -34 -54z"/>
<path d="M5201 5730 c-24 -5 -64 -19 -90 -32 -60 -29 -191 -160 -220 -220 -50
-104 -50 -262 0 -366 13 -26 59 -83 104 -128 62 -62 93 -86 135 -101 112 -42
251 -38 349 9 25 12 82 58 127 103 105 105 127 156 127 300 1 145 -21 194
-132 306 -69 69 -98 90 -145 108 -67 25 -188 35 -255 21z m255 -31 c46 -18 76
-39 140 -103 106 -107 128 -158 127 -301 0 -142 -22 -195 -122 -295 -42 -42
-97 -86 -122 -98 -98 -47 -237 -51 -349 -9 -66 24 -194 147 -229 219 -50 104
-50 262 0 366 30 60 150 181 210 210 26 13 66 27 90 32 67 14 188 4 255 -21z"/>
<path d="M6074 5693 c51 -104 96 -284 96 -392 0 -8 3 -12 6 -9 11 12 -18 205
-43 278 -26 76 -69 170 -78 170 -3 0 5 -21 19 -47z"/>
<path d="M6 5160 c13 -409 75 -841 174 -1223 50 -196 160 -517 232 -682 68
-157 280 -580 299 -600 6 -5 -41 91 -105 215 -63 124 -146 297 -184 385 -72
165 -182 486 -232 682 -74 283 -143 699 -160 963 -6 91 -15 219 -20 285 l-9
120 5 -145z"/>
<path d="M3536 5225 c13 -215 41 -358 104 -531 43 -118 122 -284 136 -284 3 0
-13 34 -36 75 -50 91 -132 313 -153 415 -8 41 -21 122 -27 180 -7 58 -16 132
-20 165 -8 55 -9 54 -4 -20z"/>
<path d="M4417 5235 c8 -114 29 -198 74 -294 23 -50 44 -90 46 -88 2 2 -15 43
-38 91 -38 82 -55 145 -77 296 l-10 65 5 -70z"/>
<path d="M6606 5233 c-22 -241 -67 -410 -147 -549 -17 -30 -28 -54 -25 -54 24
0 137 275 155 378 14 74 33 283 27 289 -2 3 -7 -26 -10 -64z"/>
<path d="M7486 5203 c-27 -393 -81 -592 -252 -935 -37 -74 -46 -107 -12 -43
97 182 191 427 227 590 26 118 62 485 48 485 -2 0 -8 -44 -11 -97z"/>
<path d="M6025 4813 c-37 -65 -178 -207 -242 -244 -29 -17 -53 -33 -53 -35 0
-3 23 7 50 23 62 35 218 191 255 256 15 26 25 47 22 47 -3 0 -17 -21 -32 -47z"/>
<path d="M4176 4595 c41 -75 102 -150 201 -246 100 -97 147 -134 218 -173 56
-31 42 -19 -48 38 -80 51 -282 253 -333 333 -57 90 -69 104 -38 48z"/>
<path d="M4937 4494 c93 -45 179 -67 303 -77 l65 -6 -60 10 c-183 31 -221 41
-301 78 -48 23 -90 41 -93 40 -3 0 35 -21 86 -45z"/>
<path d="M6775 4358 c-68 -112 -107 -161 -219 -277 -114 -116 -214 -199 -323
-266 -61 -37 -86 -58 -40 -34 208 111 507 410 616 617 24 45 3 20 -34 -40z"/>
<path d="M3385 4190 c52 -94 255 -359 343 -448 92 -94 313 -265 447 -347 57
-35 10 2 -95 75 -297 206 -406 315 -610 610 -68 99 -104 145 -85 110z"/>
<path d="M5904 4130 c-95 -56 -260 -110 -379 -126 -60 -7 -139 -18 -175 -23
l-65 -9 80 5 c153 9 268 31 379 72 96 36 216 95 216 107 0 6 -2 6 -56 -26z"/>
<path d="M4413 3773 c12 -20 215 -112 332 -151 66 -22 163 -47 215 -56 115
-19 329 -40 336 -33 3 2 -30 8 -73 11 -121 11 -230 25 -317 42 -106 21 -327
102 -422 155 -43 23 -74 38 -71 32z"/>
<path d="M6355 3373 c-16 -9 -91 -44 -165 -78 -230 -105 -408 -155 -621 -175
-63 -6 -152 -15 -199 -20 l-85 -9 100 5 c241 12 400 38 575 96 122 40 468 197
435 197 -5 0 -23 -7 -40 -16z"/>
<path d="M9804 2543 c-373 -648 -1109 -1384 -1756 -1757 -65 -38 -118 -70
-118 -72 0 -12 250 138 363 218 540 380 985 825 1365 1365 80 113 230 363 218
363 -2 0 -34 -53 -72 -117z"/>
<path d="M2655 711 c20 -19 443 -231 600 -299 165 -72 486 -182 682 -232 382
-100 813 -161 1223 -174 l145 -4 -120 8 c-66 5 -194 14 -285 20 -263 17 -679
86 -963 160 -196 50 -517 160 -682 232 -88 38 -261 121 -385 184 -124 64 -220
111 -215 105z"/>
</g>
</svg>
